<svg width="28" height="28" viewBox="0 0 28 28" fill="none" xmlns="http://www.w3.org/2000/svg">
<path d="M18.4296 11.844C18.5061 12.5943 18.55 13.3204 18.55 14C18.55 15.2721 18.3963 16.7087 18.1611 18.1611C16.7087 18.3963 15.2721 18.55 14 18.55C12.7336 18.55 11.2975 18.3967 9.83883 18.1607C9.60376 16.7083 9.45001 15.272 9.45001 14C9.45001 13.3207 9.49387 12.5944 9.57053 11.844C11.1015 12.0891 12.6287 12.25 14 12.25C15.3715 12.25 16.8987 12.0891 18.4296 11.844Z" fill="white"/>
<path d="M20.5003 11.4659C20.595 12.3439 20.65 13.1987 20.65 14C20.65 15.1692 20.533 16.4519 20.3466 17.7538C22.99 17.2022 25.4334 16.4975 26.7423 16.0963C27.1652 15.9667 27.3315 15.9151 27.5544 15.8259C27.6659 15.7814 27.768 15.736 27.9012 15.6724C27.9664 15.124 28 14.5659 28 14C28 12.504 27.7654 11.0629 27.331 9.7113L27.2178 9.74692C25.8491 10.1633 23.287 10.8994 20.5003 11.4659Z" fill="white"/>
<path d="M26.5356 7.75937C25.1598 8.17634 22.772 8.85391 20.2132 9.38143C19.6238 5.79907 18.5907 2.22607 18.0936 0.608032C21.7896 1.73642 24.8364 4.35295 26.5356 7.75937Z" fill="white"/>
<path d="M18.149 9.76305C16.7004 9.99708 15.2684 10.15 14 10.15C12.7316 10.15 11.2997 9.99708 9.85126 9.76307C10.4063 6.3734 11.3971 2.91075 11.9038 1.25777C12.0334 0.834747 12.085 0.668587 12.1742 0.445573C12.2187 0.33416 12.264 0.231973 12.3276 0.0988533C12.876 0.0335733 13.4342 0 14 0C14.5912 0 15.1738 0.03664 15.7458 0.107773C15.7579 0.154187 15.7691 0.19572 15.7802 0.235013C15.813 0.351107 15.8643 0.514266 15.9504 0.788053L15.9595 0.816813C16.3914 2.18964 17.5359 6.01868 18.149 9.76305Z" fill="white"/>
<path d="M7.78673 9.38128C8.37348 5.81471 9.39982 2.26096 9.8959 0.642363L9.90645 0.60791C6.21037 1.73628 3.16361 4.35282 1.46448 7.75923C2.84025 8.1762 5.22794 8.85376 7.78673 9.38128Z" fill="white"/>
<path d="M0.66912 9.7113C0.23464 11.0629 0 12.504 0 14C0 14.5852 0.0359066 15.162 0.10564 15.7284L0.32628 15.802L0.32804 15.8026L0.3302 15.8034L0.33172 15.8038C0.402733 15.8274 2.48407 16.5147 5.22504 17.1967C5.99848 17.3891 6.81743 17.5792 7.65341 17.7535C7.467 16.4518 7.35 15.1692 7.35 14C7.35 13.1984 7.40499 12.3436 7.49963 11.4659C4.71237 10.8992 2.14957 10.1629 0.781293 9.74656L0.771773 9.74365L0.66912 9.7113Z" fill="white"/>
<path d="M14 20.65C15.1692 20.65 16.4519 20.533 17.7538 20.3466C17.2022 22.99 16.4975 25.4334 16.0963 26.7422C15.9667 27.1652 15.9151 27.3314 15.8259 27.5544C15.7814 27.6659 15.736 27.768 15.6724 27.9012C15.124 27.9664 14.5659 28 14 28C13.4342 28 12.876 27.9664 12.3276 27.9012C12.264 27.768 12.2187 27.6659 12.1742 27.5544C12.085 27.3315 12.0334 27.1652 11.9038 26.7423C11.5026 25.4335 10.798 22.9903 10.2464 20.3471C11.5439 20.5328 12.8268 20.65 14 20.65Z" fill="white"/>
<path d="M4.71801 19.2346C2.98472 18.8032 1.50848 18.37 0.607971 18.0936C1.96345 22.5336 5.46644 26.0366 9.90645 27.392L9.8959 27.3576C9.46274 25.9443 8.6253 23.0556 8.02922 19.9712C6.87001 19.7471 5.74297 19.4895 4.71801 19.2346Z" fill="white"/>
<path d="M27.3576 18.1042C25.9443 18.5374 23.0554 19.3748 19.9708 19.9708C19.3748 23.0554 18.5374 25.9442 18.1042 27.3576L18.0936 27.392C22.5336 26.0366 26.0366 22.5336 27.392 18.0936L27.3576 18.1042Z" fill="white"/>
<path d="M0.147095 15.764C0.195561 15.7703 0.235068 15.777 0.248175 15.7799C0.259655 15.7827 0.277641 15.7875 0.284161 15.7892L0.298575 15.7934L0.306335 15.7958L0.314495 15.7983L0.321335 15.8004C0.317495 15.7992 0.239708 15.7798 0.147095 15.764Z" fill="white"/>
</svg>
